<svg xmlns="http://www.w3.org/2000/svg" height="40" viewBox="0 96 960 960" width="40"><path fill="#086AD8" d="M147.211 958.688q-22.471 0-36.424-13.993t-13.953-36.623V742.03q0-18.399 11.808-32.512 11.808-14.112 30.699-18.387L280.26 659.79q14.334-3.543 27.591.881 13.257 4.424 24.076 15.909l104.536 103.551q73.877-42.899 138.048-106.997 64.17-64.097 111.721-142.054L581.218 427.442q-8.964-8.406-12.555-21.891-3.59-13.486-.873-30.74l28.616-141.897q3.544-18.559 17.149-30.026 13.605-11.467 32.547-11.467h166.687q22.471 0 36.424 14.072 13.953 14.073 13.953 36.305 0 133.898-61.793 262.959-61.794 129.062-162.515 229.703-100.72 100.641-229.202 162.435-128.482 61.793-262.445 61.793Z"/></svg>