<svg xmlns="http://www.w3.org/2000/svg" height="48" viewBox="0 96 960 960" width="48"><path fill="#086AD8" d="M159.74 953.696q-25.088 0-41.827-16.74-16.739-16.739-16.739-42.391V750.87q0-23.479 13.609-40.501 13.608-17.022 37.652-22.848l114.13-26.478q18.913-4.696 35.565 1 16.653 5.695 30.175 20.217l100.739 101.174q76.347-43.174 139.912-105.673 63.565-62.5 115.304-145.848l-103.869-99.217q-11.653-10.522-16.348-26.544-4.696-16.022-1-37.935l27.304-121.216q4.696-24.044 20.5-37.436 15.805-13.391 40.544-13.391H800.26q25.088 0 41.827 17.022 16.739 17.022 16.739 41.544 0 126.043-61.717 251.912-61.718 125.87-160.87 224.739Q537.087 830.261 412 891.978q-125.087 61.718-252.26 61.718Z"/></svg>